<?xml version="1.0" encoding="UTF-8"?>
<svg id="Layer_2" data-name="Layer 2" xmlns="http://www.w3.org/2000/svg" viewBox="0 0 183.75 82.91">
  <defs>
    <style>
      .cls-1 {
        fill: #221f20;
      }
    </style>
  </defs>
  <g id="Layer_1-2" data-name="Layer 1">
    <g>
      <path class="cls-1" d="M72.92,39.94h-14.39V13.38h-14.62c-.66,0-1.91,0-2.53.15.11.15.29.36.61.65l.08.09,4.73,5.61c2.75,3.09,2.58,5.12,2.41,7.08-.04.46-.08.93-.08,1.44,0,6.81-5.69,11.56-10.8,11.56H.34v-14.65h27.63c.1,0,.32.02.6.04,2.15.2,2.97.09,3.28-.04-.09-.21-.39-.69-1.34-1.55-5.42-4.93-6.37-9.2-6.58-13.08-.11-1.95.81-4.99,3.09-7.41,1.4-1.48,3.85-3.25,7.52-3.25h55.07v13.38h-16.7v26.57ZM60.53,37.94h10.39V11.38h16.7V2h-53.07c-2.96,0-4.93,1.43-6.07,2.63-1.87,1.97-2.63,4.45-2.55,5.92.18,3.22.8,7.05,5.93,11.71,1.19,1.08,2.48,2.5,1.89,3.85-.67,1.52-3.12,1.42-5.37,1.21-.19-.02-.34-.03-.42-.04H2.34v10.65h36c3.59,0,8.8-3.4,8.8-9.56,0-.58.04-1.1.09-1.6.15-1.82.26-3.13-1.93-5.6l-4.71-5.58c-.51-.48-1.71-1.65-1.24-2.86.54-1.36,2.58-1.36,4.56-1.36h16.62v26.57Z"/>
      <path class="cls-1" d="M127.96,39.94h-14.23l-1.95-5.31h-11.77l-2.02,5.31h-14.5L95.28,0h21.49l11.19,39.94ZM115.12,37.94h10.2L115.26,2h-18.48l-10.61,35.94h10.44l2.02-5.31h14.54l1.95,5.31ZM111.78,25.52h-11.04l5.69-18.4,5.35,18.4ZM103.46,23.52h5.66l-2.75-9.44-2.92,9.44Z"/>
      <path class="cls-1" d="M183.75,39.94h-22.45c-4.34,0-4.84-.32-8.04-3.25-2.06-1.89-5.25-5.46-7.23-7.71v10.97h-15.66V0h27.89c5.32,0,11.81,5.71,11.81,12.38,0,5.75-2.92,11.06-6.55,12.66.57.14,1.4.26,2.59.26h17.64v14.65ZM144.04,23.58l1.76,2.07c.06.07,5.81,6.82,8.77,9.53,2.97,2.72,3.03,2.77,6.73,2.77h20.45v-10.65h-15.64c-5.53,0-5.81-2.31-5.81-2.77v-1h1c3.42,0,6.77-5.52,6.77-11.14s-5.49-10.38-9.81-10.38h-25.89v35.94h11.66v-14.37ZM153.71,18.44h-9.67v-8.83h9.67c2.66,0,4.24,2.35,4.24,4.62,0,1.11-.37,2.13-1.03,2.88-.54.61-1.53,1.33-3.21,1.33ZM146.04,16.44h7.67c.75,0,1.33-.22,1.71-.66.34-.39.53-.94.53-1.56,0-1.27-.79-2.62-2.24-2.62h-7.67v4.83Z"/>
      <path class="cls-1" d="M46.17,82.7h-12.65l-4.17-15.36-4.7,15.36h-12.87L0,42.75h16.08l2.75,9.81,2.55-9.81h16.19l3.05,10.17,3.05-10.17h14.22l-11.72,39.95ZM35.06,80.7h9.62l10.55-35.95h-10.06l-4.54,15.13-4.54-15.13h-13.16l-4.03,15.49-4.34-15.49H2.68l10.61,35.95h9.9l6.29-20.57,5.58,20.57Z"/>
      <path class="cls-1" d="M97.19,82.91h-14.23l-1.95-5.31h-11.77l-2.02,5.31h-14.5l11.79-39.94h21.49l11.19,39.94ZM84.36,80.91h10.2l-10.07-35.94h-18.48l-10.61,35.94h10.44l2.02-5.31h14.54l1.95,5.31ZM81.01,68.49h-11.04l5.69-18.4,5.35,18.4ZM72.69,66.49h5.66l-2.75-9.44-2.92,9.44Z"/>
      <path class="cls-1" d="M116.15,82.9h-15.66v-39.94h27.89c5.32,0,11.81,5.71,11.81,12.38,0,5.6-2.77,10.79-6.27,12.53.63.25,1.42.44,2.34.44,3.04,0,14.73.01,14.73.01.1,0,.32.02.6.04,2.15.21,2.97.09,3.28-.04-.09-.21-.39-.69-1.34-1.55-5.42-4.93-6.37-9.2-6.58-13.08-.11-2.07.83-5.42,3.17-7.89,1.88-1.99,4.33-3.05,7.07-3.05h26.57v13.39h-17.39c-1.28,0-1.87.1-2.14.19.1.17.32.45.78.87l.08.09,4.73,5.61c3.29,3.71,3.29,5.47,3.29,8.12v.13c0,7.16-6.88,11.56-11.81,11.56l-29.89.2c-4.35,0-4.84-.32-8.04-3.25-2.06-1.89-5.25-5.46-7.23-7.71v10.97ZM114.15,66.54l1.76,2.07c.06.07,5.81,6.82,8.77,9.53,2.97,2.72,3.03,2.77,6.73,2.77l29.89-.2c4.01,0,9.81-3.72,9.81-9.56v-.13c0-2.43,0-3.66-2.81-6.81l-4.71-5.58c-.81-.77-1.8-1.9-1.35-3.06.52-1.31,2.4-1.43,4.12-1.43h15.39v-9.39h-24.57c-2.21,0-4.1.81-5.62,2.42-1.85,1.95-2.72,4.7-2.62,6.4.18,3.22.8,7.05,5.93,11.71,1.19,1.08,2.48,2.5,1.89,3.85-.67,1.52-3.12,1.42-5.37,1.21-.19-.02-.34-.03-.42-.04h0s-11.69-.01-14.72-.01c-3.41,0-5.47-2.03-5.56-2.12l-1.69-1.7h2.4c3.42,0,6.77-5.52,6.77-11.15s-5.49-10.38-9.81-10.38h-25.89v35.94h11.66v-14.37ZM123.82,61.4h-9.67v-8.83h9.67c2.66,0,4.24,2.35,4.24,4.62,0,1.11-.37,2.13-1.03,2.88-.54.61-1.53,1.33-3.21,1.33ZM116.15,59.4h7.67c.75,0,1.33-.22,1.71-.66.34-.39.53-.94.53-1.56,0-1.27-.79-2.62-2.24-2.62h-7.67v4.83Z"/>
    </g>
  </g>
</svg>